<?xml version="1.0" encoding="UTF-8" standalone="no"?>
<!-- Created with Inkscape (http://www.inkscape.org/) -->

<svg
   xmlns:dc="http://purl.org/dc/elements/1.1/"
   xmlns:cc="http://creativecommons.org/ns#"
   xmlns:rdf="http://www.w3.org/1999/02/22-rdf-syntax-ns#"
   xmlns:svg="http://www.w3.org/2000/svg"
   xmlns="http://www.w3.org/2000/svg"
   xmlns:sodipodi="http://sodipodi.sourceforge.net/DTD/sodipodi-0.dtd"
   xmlns:inkscape="http://www.inkscape.org/namespaces/inkscape"
   width="297mm"
   height="172mm"
   viewBox="0 0 297 172"
   version="1.1"
   id="svg8"
   inkscape:version="0.92.4 (5da689c313, 2019-01-14)"
   sodipodi:docname="fca y qca.svg">
  <defs
     id="defs2" />
  <sodipodi:namedview
     id="base"
     pagecolor="#ffffff"
     bordercolor="#666666"
     borderopacity="1.0"
     inkscape:pageopacity="0.0"
     inkscape:pageshadow="2"
     inkscape:zoom="0.7"
     inkscape:cx="605.91713"
     inkscape:cy="481.3945"
     inkscape:document-units="mm"
     inkscape:current-layer="layer1"
     showgrid="false"
     height="209mm"
     inkscape:window-width="1920"
     inkscape:window-height="1001"
     inkscape:window-x="-9"
     inkscape:window-y="-9"
     inkscape:window-maximized="1" />
  <metadata
     id="metadata5">
    <rdf:RDF>
      <cc:Work
         rdf:about="">
        <dc:format>image/svg+xml</dc:format>
        <dc:type
           rdf:resource="http://purl.org/dc/dcmitype/StillImage" />
        <dc:title />
      </cc:Work>
    </rdf:RDF>
  </metadata>
  <g
     inkscape:label="Capa 1"
     inkscape:groupmode="layer"
     id="layer1"
     transform="translate(0,-125)">
    <path
       inkscape:connector-curvature="0"
       id="path33"
       d="m 206.57961,290.47077 c -0.55354,-1.74398 1.4812,-4.08153 3.08689,-3.54632 1.31526,0.43844 2.31343,2.63558 1.80238,3.96738 -0.74222,1.93417 -4.2373,1.63316 -4.88927,-0.42106 z m 0.17353,-8.99689 c -0.28704,-0.28703 -0.52187,-10.85515 -0.52187,-23.4847 v -22.9628 h -66.76684 c -74.399932,0 -72.404139,0.13159 -80.375639,-5.30337 -19.035901,-12.97882 -15.41456,-39.79352 6.459433,-47.82979 3.708815,-1.3626 6.281866,-1.6645 14.185663,-1.6645 h 9.655076 l 0.496218,-3.74054 c 1.28515,-9.68803 12.088459,-14.32109 19.281149,-8.26883 3.09403,2.60345 4.69187,5.74699 4.69187,9.2306 v 2.77877 l 60.08169,0.0111 c 33.04496,0.007 60.79884,0.20326 61.67531,0.43883 1.45999,0.39226 1.59362,0.0715 1.59362,-3.82669 0,-3.47038 0.41077,-4.7934 2.22799,-7.17591 5.40759,-7.08972 14.58469,-6.55698 19.83085,1.15123 2.73488,4.0184 1.90171,11.06163 -1.65777,14.0136 -0.75846,0.62903 -1.12587,1.67916 -0.86977,2.48607 0.64745,2.03993 -1.96841,3.32632 -3.65685,1.7983 -2.29973,-2.08123 -2.18352,0.073 0.19506,3.61453 7.404,11.0243 5.52582,25.26646 -4.54592,34.47145 -4.90725,4.48494 -10.93692,6.9715 -18.42818,7.59955 l -5.28503,0.44307 v 13.04484 c 0,13.80778 -0.53883,16.1552 -3.57446,15.57189 -1.42115,-0.2731 -1.52696,-1.16548 -1.72727,-14.56736 l -0.21325,-14.27644 h -3.89645 c -2.94163,0 -3.89646,0.28774 -3.89646,1.17424 0,0.85384 0.88042,1.17422 3.22678,1.17422 3.14704,0 3.19859,0.0424 2.08577,1.71846 -1.5128,2.27841 -2.52043,2.52747 -4.04746,1.00047 -1.1649,-1.16492 -1.26509,0.36971 -1.26509,19.37907 0,15.01281 -0.25625,20.90042 -0.93938,21.58355 -1.02348,1.02348 -3.18766,1.24833 -4.01851,0.41751 z m 31.83183,-53.28073 c 5.63811,-2.60212 9.33911,-5.87392 11.90799,-10.52702 1.9675,-3.56378 2.30186,-5.0178 2.30852,-10.03859 0.007,-4.70833 -0.37473,-6.62 -1.92352,-9.65204 -2.19828,-4.30351 -6.24234,-8.24506 -11.14573,-10.86318 l -3.36227,-1.79526 H 152.21655 68.063025 l -3.305219,1.76617 c -4.872295,2.60352 -8.255624,5.85803 -10.635419,10.23049 -6.728689,12.36283 -0.511663,26.59986 13.783953,31.5654 3.837296,1.33288 8.740769,1.4038 85.48445,1.23644 l 81.41365,-0.17752 z m 14.14038,-43.67156 c 4.83472,-2.29421 6.50348,-7.97141 3.69627,-12.5749 -2.9991,-4.91818 -9.64975,-5.43237 -13.82986,-1.06928 -3.95677,4.12999 -2.52337,11.07636 2.85613,13.84101 2.4949,1.28217 4.2614,1.2344 7.27746,-0.19683 z m -4.6198,-2.74858 c -0.3765,-1.18622 -0.92655,-1.4778 -2.0907,-1.10831 -1.29784,0.41191 -1.49385,0.23055 -1.09815,-1.01612 0.34761,-1.09527 -0.0111,-1.73807 -1.29267,-2.31009 l -1.77429,-0.79257 1.79406,-0.5702 c 1.35662,-0.43118 1.67221,-0.95412 1.29436,-2.14469 -0.39415,-1.24179 -0.19439,-1.51036 0.94581,-1.27104 0.85504,0.17952 1.83842,-0.35072 2.40736,-1.29798 0.95613,-1.59193 0.96479,-1.59097 1.46123,0.16 0.57151,2.01563 0.66577,2.04862 2.71675,0.95098 1.70158,-0.91066 1.87246,-0.53898 0.73195,1.59209 -0.63307,1.18289 -0.45796,1.56454 0.91819,2.00132 l 1.70042,0.53968 -1.66676,0.89203 c -1.22253,0.65428 -1.47044,1.20256 -0.93017,2.05706 1.17167,1.85318 0.88302,2.45988 -0.75363,1.58397 -2.01008,-1.07577 -2.39994,-1.02415 -2.39994,0.31767 0,1.85147 -1.41323,2.15102 -1.96382,0.41627 z m -137.52748,-4.0365 c 0.58603,-5.07285 -4.64298,-9.82072 -9.87995,-8.97088 -4.806055,0.77992 -8.801812,6.06311 -7.555518,9.98988 0.445936,1.405 1.141068,1.50752 8.838388,1.30337 l 8.35439,-0.22168 z m -13.922881,-0.59729 -1.937832,-1.48901 2.210595,-0.55483 c 1.510136,-0.37903 2.472883,-1.30727 3.038403,-2.92951 l 0.827805,-2.37467 1.3734,1.69604 c 0.87228,1.07723 2.25587,1.69607 3.79208,1.69607 2.63771,0 3.07648,0.82801 1.24445,2.34847 -0.64583,0.53598 -1.17422,1.45981 -1.17422,2.05291 0,1.711 -7.001188,1.37832 -9.374681,-0.44547 z m 96.855301,101.27819 c -0.32291,-0.32819 -0.58713,-1.41867 -0.58713,-2.42329 0,-1.0685 -0.46815,-1.82659 -1.12802,-1.82659 -1.74049,0 -2.37618,-1.68613 -0.93894,-2.49046 0.83429,-0.46688 1.28415,-1.7471 1.28415,-3.65445 0,-3.17946 1.09762,-4.81462 3.23193,-4.81462 2.15534,0 3.81349,2.23678 3.81349,5.14428 0,1.86385 0.35877,2.68396 1.17422,2.68396 1.48659,0 1.52476,1.29047 0.0626,2.11387 -0.61143,0.3443 -1.25459,1.85896 -1.42925,3.36588 l -0.31757,2.7399 -1.09083,-2.54418 c -1.37832,-3.2147 -2.92316,-3.27231 -3.24217,-0.12094 -0.13492,1.3328 -0.50949,2.15477 -0.83242,1.8266 z m 2.93558,-11.29529 c -0.37875,-0.61283 -0.82905,-0.6583 -1.35095,-0.13647 -0.43056,0.43056 -0.52715,1.19648 -0.2148,1.70206 0.37874,0.61283 0.82905,0.6583 1.35094,0.13647 0.43056,-0.43056 0.52718,-1.19648 0.21481,-1.70206 z m -2.17898,-5.24272 c -0.20104,-0.34566 -0.60522,-2.60875 -0.89833,-5.02913 -0.45137,-3.72726 -0.32939,-4.47878 0.79712,-4.91107 0.73153,-0.28073 1.42728,-0.41316 1.54613,-0.29431 0.70843,0.70845 0.5027,10.33554 -0.22605,10.57844 -0.46941,0.15644 -1.01789,0.002 -1.21887,-0.34393 z M 60.022624,259.48718 c -2.23021,-0.75028 -3.310544,-4.77532 -3.310544,-12.33437 0,-4.13705 0.302853,-7.33473 0.673009,-7.10595 0.370156,0.22876 0.861692,3.50806 1.092294,7.28731 0.505694,8.28791 1.012431,9.77293 3.226998,9.45694 1.519811,-0.2168 1.681201,-0.79326 1.889945,-6.74977 0.16332,-4.66165 0.497129,-6.42395 1.174243,-6.20045 1.423128,0.4697 1.625748,9.3334 0.286631,12.53841 -1.090629,2.6102 -3.002432,3.79083 -5.032576,3.10788 z m 50.704286,-3.71598 c -1.07639,-0.61532 -3.46553,-1.13124 -5.3092,-1.14651 -1.84368,-0.0155 -4.66185,-0.62079 -6.262587,-1.34564 l -2.910454,-1.3179 4.468791,-0.45013 c 5.26553,-0.53041 6.63256,-1.50042 5.38904,-3.82396 -1.19071,-2.22486 -1.09771,-2.48163 0.906,-2.50118 2.94092,-0.0288 8.1542,-2.82424 10.05089,-5.38968 1.73998,-2.35346 1.9647,-2.42136 8.01428,-2.42136 h 6.2241 l -0.41329,4.5579 c -0.48852,5.38751 -2.70919,10.11029 -6.09249,12.95715 -2.07124,1.74284 -3.17801,2.05131 -7.27544,2.02779 -2.70379,-0.0155 -5.69467,-0.52054 -6.78964,-1.14648 z m 52.61844,-1.16499 c -4.33607,-1.96801 -6.39024,-6.16992 -6.41468,-13.12155 l -0.0177,-4.89265 h 2.34847 c 2.30128,0 2.35003,0.0825 2.4265,4.10984 0.10651,5.60826 0.78259,7.62083 3.15535,9.39234 2.38301,1.77917 8.01634,2.08973 11.52729,0.63544 1.9795,-0.81993 2.64916,-0.78691 4.0584,0.20016 l 1.6877,1.18212 -1.9377,1.26962 c -4.7155,3.08973 -11.61849,3.59189 -16.83416,1.22468 z m 21.7784,-4.05965 c -4.12682,-1.18405 -6.72086,-3.39331 -8.54776,-7.27987 -2.19691,-4.67371 -2.09778,-5.64953 0.61434,-6.0476 2.08897,-0.30658 2.30838,-0.10518 2.72509,2.50069 0.59561,3.72474 3.42638,6.28492 7.56265,6.83972 5.57976,0.74839 9.38968,-2.21447 10.30046,-8.01042 0.17907,-1.13925 0.95739,-1.63398 2.8581,-1.81649 2.58055,-0.24782 2.60532,-0.21946 2.05207,2.34846 -1.20407,5.58882 -5.1732,10.28479 -9.81908,11.61721 -3.15304,0.90427 -4.13225,0.8851 -7.74587,-0.15178 z M 81.762433,248.28961 c 0,-3.23192 1.76406,-8.56631 2.832832,-8.56631 1.565191,0 4.212579,2.88545 4.212579,4.59137 0,2.30761 -3.01943,5.58534 -5.14517,5.58534 -1.395967,0 -1.900241,-0.42734 -1.900241,-1.6104 z m -5.360704,-1.15593 c -1.257722,-1.59894 -1.423173,-2.46144 -0.853304,-4.44844 0.822238,-2.86694 1.280955,-3.37916 3.673688,-4.10216 2.422955,-0.7321 2.874638,0.84742 1.767433,6.18081 -1.009236,4.86142 -2.160223,5.45597 -4.587817,2.36979 z m 76.073631,-0.322 c -1.3811,-0.83991 -2.90995,-2.78992 -3.66311,-4.67223 -1.78923,-4.47179 -1.66042,-5.54744 0.66442,-5.54744 1.40915,0 1.95705,0.42153 1.95705,1.50559 0,0.82807 0.82477,2.50135 1.83283,3.7184 1.96794,2.376 3.07519,5.51269 2.1482,6.08562 -0.31291,0.19327 -1.63565,-0.29709 -2.93939,-1.08994 z m 11.6401,0.58331 c -1.4411,-1.4411 -1.12689,-2.638 0.93969,-3.5796 1.08677,-0.49515 2.26765,-2.03352 2.80062,-3.64837 0.77683,-2.35385 1.28062,-2.79218 3.20924,-2.79218 1.57458,0 2.28777,0.39019 2.28777,1.25164 0,2.44322 -2.64931,6.78264 -5.02569,8.23173 -2.84848,1.73701 -2.99298,1.75543 -4.21163,0.53678 z m -70.269715,-0.86802 c 0.833378,-0.51286 2.322456,-1.76785 3.309102,-2.78882 l 1.793906,-1.85635 -1.622464,-2.05777 -1.622464,-2.05777 10.055725,-0.47499 c 5.53063,-0.26127 10.21939,-0.33243 10.41944,-0.15821 0.19993,0.17419 -0.002,0.89872 -0.45195,1.60992 -1.64854,2.61348 -4.95156,4.33658 -9.05163,4.72203 -2.81322,0.26448 -4.88746,0.99234 -6.38097,2.23917 -1.480803,1.2362 -3.164069,1.83207 -5.088365,1.80127 -2.558249,-0.0411 -2.708344,-0.14889 -1.36033,-0.97852 z m 38.293465,-1.33421 c 0.27871,-1.39361 0.50676,-3.69148 0.50676,-5.10636 v -2.57249 l 4.89264,-0.30135 c 2.69094,-0.16576 5.49073,-0.10806 6.22173,0.12826 1.23659,0.39978 1.24074,0.61201 0.0597,3.05057 -1.45184,2.99772 -5.63963,5.9797 -9.5281,6.78463 -2.65737,0.55007 -2.65913,0.54845 -2.15275,-1.98335 z m 110.10203,0.24205 c -0.64582,-0.22652 -1.57105,-0.90756 -2.05606,-1.5134 -0.67592,-0.84434 -1.37411,-0.91441 -2.98992,-0.3001 -2.70821,1.02968 -5.63854,0.28198 -7.10603,-1.81316 -1.99875,-2.85361 -1.4642,-4.31097 1.77961,-4.85191 1.61457,-0.26925 4.57985,-0.94266 6.58949,-1.49649 2.91687,-0.80382 4.417,-0.81405 7.43683,-0.0506 3.68423,0.9313 3.78914,1.0397 4.02139,4.15484 0.19638,2.63392 -0.0801,3.39959 -1.56566,4.33735 -2.33351,1.47295 -4.63515,2.05067 -6.10965,1.53355 z m -56.81184,-0.83084 c -0.47326,-0.32405 -0.69367,-2.02762 -0.5049,-3.90212 0.29156,-2.89474 0.57868,-3.32701 2.20993,-3.32701 1.46456,0 1.87481,0.41711 1.87481,1.9061 0,2.32217 -1.30108,5.9266 -2.13337,5.91016 -0.33357,-0.007 -0.9845,-0.27081 -1.44647,-0.58713 z M 23.076112,242.9021 c -1.951723,-3.64679 2.784213,-6.48426 4.978964,-2.98308 0.623147,0.99406 0.623147,1.74582 0,2.73988 -1.268041,2.02282 -3.956281,2.15414 -4.978964,0.2432 z m 42.000946,-1.69405 c -5.387554,-2.69966 -6.064069,-3.27455 -5.671345,-4.81921 l 0.445913,-1.75388 -0.906561,1.76136 c -1.069527,2.07792 -1.686527,2.18878 -3.048411,0.54783 -0.831935,-1.00245 -0.780698,-1.43997 0.294598,-2.51527 1.213764,-1.21376 1.844056,-1.1258 9.326638,1.30157 4.413689,1.43183 8.293502,2.8499 8.621808,3.15131 1.084948,0.99605 -0.307513,5.54391 -1.67328,5.46504 -0.699659,-0.0404 -4.024871,-1.45284 -7.38936,-3.13875 z m 126.768522,2.00703 c -0.26833,-0.69924 -0.48785,-2.32519 -0.48785,-3.6132 0,-1.80895 0.31172,-2.2818 1.36993,-2.07801 1.02564,0.19749 1.36994,1.03169 1.36994,3.31915 0,3.15253 -1.39048,4.61716 -2.25202,2.37206 z M 47.221434,242.15083 c -1.757447,-1.42308 -1.792641,-1.64885 -0.823769,-5.28406 1.64441,-6.16989 3.77421,-7.17806 2.418651,-1.1449 -0.541776,2.41128 -0.503386,3.70495 0.132698,4.47138 1.239282,1.49325 2.018893,0.7935 2.606691,-2.3397 0.493822,-2.63227 2.142714,-4.79707 3.000502,-3.93928 0.241985,0.24196 -0.05237,1.38381 -0.654325,2.53739 -0.601844,1.15358 -1.096443,2.68873 -1.099106,3.41144 -0.0044,1.36446 -1.987694,3.77432 -3.105307,3.77432 -0.352093,0 -1.466311,-0.66897 -2.476057,-1.48659 z m 213.774976,-5.20668 c -0.83198,-1.00247 -0.78056,-1.4401 0.29556,-2.51622 1.21505,-1.21505 1.39035,-1.21505 2.6054,0 1.07612,1.07612 1.12751,1.51375 0.29555,2.51622 -0.55393,0.66744 -1.27314,1.21352 -1.59825,1.21352 -0.32511,0 -1.04434,-0.54608 -1.59826,-1.21352 z M 38.080885,234.08698 c -1.420311,-1.42032 -1.122295,-5.40502 0.617688,-8.25878 0.853172,-1.3993 1.839085,-2.54418 2.190956,-2.54418 0.351849,0 1.029452,1.84942 1.505788,4.10981 0.703232,3.33711 0.655301,4.44101 -0.254855,5.8712 -1.245718,1.9574 -2.641508,2.24001 -4.059577,0.82195 z m 208.074475,-0.57207 c -0.99776,-0.67372 -0.8922,-0.99146 0.70241,-2.11431 4.69076,-3.30302 7.28032,-6.28118 9.65392,-11.10268 2.38805,-4.85084 2.56027,-5.74142 2.56027,-13.24102 0,-7.88396 0.0353,-8.04043 1.81281,-8.04043 4.20764,0 7.58424,4.34994 7.03417,9.06178 -0.24956,2.13752 -0.004,2.66702 1.39297,3.01792 3.25602,0.81722 4.22179,7.22329 1.59015,10.54774 -0.47882,0.60491 -1.96938,1.55911 -3.31236,2.12051 -1.97363,0.82499 -2.37298,1.38067 -2.08287,2.89825 0.26185,1.3698 -0.21791,2.33115 -1.77362,3.55497 -2.33043,1.83311 -4.35527,2.10576 -6.62344,0.89187 -1.15308,-0.61711 -1.71314,-0.43544 -2.61135,0.84695 -1.29656,1.8511 -6.47666,2.8187 -8.34306,1.55845 z M 21.697963,232.51297 c -2.400965,-1.15879 -2.944005,-3.44009 -1.385183,-5.81915 1.167718,-1.78214 1.609948,-1.92492 4.174744,-1.34777 1.577773,0.35504 4.566004,0.58775 6.640483,0.51714 3.422162,-0.11649 3.676151,-0.007 2.739899,1.17971 -1.843612,2.33699 -4.111746,4.13122 -6.682267,5.2861 -2.906393,1.30576 -3.146713,1.31381 -5.487676,0.18395 z m 25.33441,-3.02318 c -1.589467,-1.25026 -2.06263,-2.31307 -2.06263,-4.63292 0,-3.24402 0.615314,-5.48697 1.505255,-5.48697 0.305205,0 1.298841,1.32101 2.208087,2.93559 0.909247,1.61457 2.736349,3.97106 4.060199,5.23666 1.753896,1.6767 2.140984,2.47 1.426568,2.92359 -1.769031,1.12323 -5.036881,0.67639 -7.137479,-0.97595 z M 31.164288,222.3686 c -2.414567,-1.16918 -3.94827,-4.32885 -2.905194,-5.98524 1.149722,-1.8258 3.041864,-2.04701 7.782216,-0.90981 3.010532,0.72221 4.700033,0.75487 6.504701,0.12582 2.18856,-0.76294 2.363974,-0.71368 1.71533,0.48182 -0.949189,1.74946 -4.717518,5.21718 -6.87266,6.32438 -2.061942,1.05934 -3.983908,1.04794 -6.224393,-0.0368 z M 279.01458,211.88213 c -0.41991,-1.10441 -0.76346,-2.57592 -0.76346,-3.27001 0,-0.69406 -1.14486,-2.27033 -2.54415,-3.5028 l -2.54419,-2.24082 3.29892,0.48653 c 2.37281,0.34994 3.7952,0.13891 5.06682,-0.75177 2.24681,-1.57373 4.85487,-1.58423 6.1491,-0.0249 0.83014,1.00027 0.78882,1.43183 -0.23515,2.45582 -0.94653,0.94653 -1.04088,1.56479 -0.39634,2.59688 1.19375,1.91149 0.15533,4.18183 -1.69159,3.69883 -1.00446,-0.26269 -1.61403,0.0903 -1.87426,1.08542 -0.58271,2.22837 -3.55046,1.87392 -4.4657,-0.53332 z M 32.439186,210.36096 c -1.951701,-2.35166 0.813917,-4.74304 2.980109,-2.57685 1.307562,1.30757 1.17726,2.00951 -0.544061,2.93074 -1.09955,0.58846 -1.729976,0.49688 -2.436048,-0.35389 z m 6.267975,-1.16776 c -1.881735,-1.88172 -2.10852,-6.81126 -0.416312,-9.04855 1.537631,-2.03296 1.481178,-2.69381 -0.230069,-2.69381 -4.674979,0 -7.622202,-9.8976 -4.072403,-13.6762 0.820974,-0.87387 1.51402,-1.94114 1.540072,-2.37169 0.02618,-0.43054 0.399669,-0.82686 0.830227,-0.88067 0.430557,-0.0539 1.155891,-0.1418 1.611857,-0.19572 0.455965,-0.0537 0.598937,-0.47014 0.317698,-0.92518 -0.851974,-1.37852 0.335938,-4.55293 2.046298,-5.4683 1.253173,-0.67068 2.044633,-0.57557 3.579668,0.43022 1.836023,1.20303 2.071373,1.20025 3.442376,-0.0406 1.375242,-1.24457 1.683154,-1.24714 4.701875,-0.0393 2.06567,0.82652 4.182866,1.11379 5.872499,0.79683 2.467736,-0.46296 2.734463,-0.30097 4.038696,2.45269 1.06125,2.24068 1.160463,3.02802 0.413361,3.28019 -2.441995,0.82423 -10.182428,7.26194 -12.139876,10.09673 -2.98883,4.32847 -5.273385,11.2233 -5.273385,15.91521 0,3.84886 -0.05059,3.93367 -2.348485,3.93367 -1.304699,0 -3.044305,-0.69584 -3.914097,-1.56563 z m -14.989817,-8.09421 -2.073237,-0.92163 1.711225,-2.14609 c 0.941178,-1.18035 2.314468,-2.14609 3.051762,-2.14609 0.753137,0 1.342444,-0.60027 1.344885,-1.36994 0.0089,-2.41676 1.624239,-7.29461 2.282603,-6.88772 0.350162,0.21635 0.825722,2.0707 1.056767,4.12062 0.335317,2.97489 0.93441,4.15648 2.968326,5.85448 2.152878,1.7973 2.392577,2.31493 1.544953,3.33626 -1.152208,1.38834 -3.38912,1.56036 -5.512485,0.42397 -0.980433,-0.52471 -1.627523,-0.52471 -1.951812,0 -0.607259,0.98258 -1.775909,0.91286 -4.422987,-0.26386 z m 2.464629,-2.08252 c 0,-0.43053 -0.373062,-0.7828 -0.829028,-0.7828 -0.455966,0 -0.611298,0.35227 -0.345214,0.7828 0.266106,0.43056 0.639168,0.78283 0.829028,0.78283 0.189949,0 0.345214,-0.35227 0.345214,-0.78283 z m 240.640497,0.38487 c -2.60367,-2.60367 -1.67162,-3.98821 1.23711,-1.83771 2.57063,1.90055 4.71179,1.48373 4.71179,-0.91726 0,-0.90001 0.35227,-1.41869 0.78283,-1.1526 1.57187,0.97146 0.82417,4.03539 -1.21108,4.96272 -2.78384,1.26839 -3.29477,1.17073 -5.52065,-1.05515 z m 19.88657,-0.28226 c -0.74207,-1.05943 -2.55974,-1.777 -5.75001,-2.26989 l -4.66495,-0.72076 3.0042,-1.33503 c 1.65234,-0.73428 4.32788,-2.7265 5.94569,-4.42716 3.20101,-3.36496 4.07222,-3.67722 5.4908,-1.96792 0.67199,0.80968 0.70281,1.55431 0.11029,2.66163 -0.63369,1.18405 -0.5562,1.63975 0.33709,1.98252 1.40289,0.53836 1.53685,2.58659 0.19838,3.03277 -0.52884,0.17619 -0.96918,1.16807 -0.97852,2.20398 -0.0222,2.40168 -2.24479,2.90726 -3.69284,0.83986 z m -29.96546,-3.97785 c -1.61083,-3.11503 -1.5284,-3.54947 0.88182,-4.64764 2.25058,-1.02544 2.64324,-0.78736 4.00969,2.43128 0.79204,1.86558 0.69234,2.27587 -0.8083,3.32698 -2.34331,1.64131 -2.71198,1.54103 -4.08321,-1.11062 z m 5.06924,-3.7417 c -1.54558,-3.49399 -1.56127,-3.75892 -0.27845,-4.69695 0.74775,-0.54675 1.75401,-0.9941 2.23616,-0.9941 1.04425,0 3.08749,7.41268 2.36533,8.58115 -1.08768,1.75989 -2.76098,0.64124 -4.32304,-2.8901 z m 6.37648,0.93119 c -2.44639,-3.11008 -4.28234,-13.71767 -2.55865,-14.78298 0.37812,-0.23371 0.88575,0.53811 1.12802,1.71515 0.24228,1.17704 1.89796,4.54428 3.67926,7.48278 1.7813,2.93851 3.0461,5.84472 2.81066,6.45831 -0.67658,1.76312 -3.34824,1.30199 -5.05929,-0.87326 z M 65.409823,177.7722 c -1.213408,-3.09874 -4.067521,-8.98192 -3.673,-7.57117 0.524556,1.87568 -4.013998,3.32781 -6.932662,2.21814 -2.523589,-0.95949 -2.273527,-2.70852 0.411363,-2.87715 3.876995,-0.24347 4.258668,-0.3109 5.222635,-0.92287 0.770691,-0.48927 0.625012,-1.64115 -0.666817,-5.27207 -1.056856,-2.97048 -1.806066,-7.45942 -2.077475,-12.44724 -0.393878,-7.23826 -0.331656,-7.70834 0.862491,-6.51422 0.70787,0.70787 1.287036,1.99595 1.287036,2.86239 0,2.42662 1.479203,2.77987 2.325007,0.55523 0.656744,-1.72736 1.083063,-1.92426 3.234676,-1.49394 3.636187,0.72724 2.740454,-1.28136 -1.513287,-3.39336 -0.142462,-0.0708 0.122712,-0.84199 0.589218,-1.71384 1.379613,-2.57782 -0.694667,-3.07423 -2.641841,-0.63224 -0.91364,1.14583 -2.088282,2.08332 -2.610308,2.08332 -2.987764,0 1.905945,-6.63966 6.396834,-8.67906 3.817592,-1.73364 10.441321,-1.93667 14.045975,-0.43055 1.404644,0.5869 4.008872,2.72002 5.787156,4.74027 2.674793,3.03871 3.775231,5.3897 6.370827,13.61086 1.725671,5.46571 3.355302,10.71195 3.62143,11.65832 0.386066,1.37294 -0.01109,1.97665 -1.965969,2.9875 -2.522479,1.30444 -5.40839,6.33371 -5.440899,9.48188 -0.01553,1.5786 -0.4938,1.68642 -9.215353,2.0809 -5.059005,0.22882 -9.984513,0.66395 -10.945596,0.96696 -1.382831,0.43599 -1.898444,0.1651 -2.471441,-1.29806 z m 10.272209,-8.41662 c 0.933745,0.52254 1.499552,0.34999 2.044323,-0.62348 0.635508,-1.13559 0.948701,-1.18383 2.003271,-0.3086 1.078004,0.89465 1.250001,0.80877 1.250001,-0.6241 0,-1.87377 0.791615,-2.12239 2.21754,-0.69649 0.76481,0.76484 1.062248,0.59324 1.433669,-0.82709 0.28672,-1.09636 0.884593,-1.63252 1.540005,-1.38099 1.365323,0.52391 1.346749,0.24744 -0.220793,-3.28332 -0.94231,-2.12259 -1.381678,-2.53961 -1.623041,-1.54049 -0.38782,1.60528 -1.105076,1.73352 -2.408066,0.43055 -0.730637,-0.73063 -0.939381,-0.55056 -0.939381,0.81037 0,1.4731 -0.233885,1.62457 -1.479226,0.95809 -1.20948,-0.64729 -1.560264,-0.48189 -1.923452,0.90702 -0.433931,1.65935 -0.481263,1.66516 -2.04348,0.25138 -1.563438,-1.4149 -1.599253,-1.40953 -1.599253,0.23967 0,1.75164 -1.11495,2.26672 -1.957049,0.90415 -0.266105,-0.43056 -0.798428,-0.78283 -1.182963,-0.78283 -0.384535,0 -0.10607,1.60047 0.619042,3.55661 1.050643,2.83478 1.486571,3.3263 2.147929,2.42182 0.575061,-0.78644 1.226102,-0.91299 2.120858,-0.41227 z m -9.604526,-11.40305 c 1.075762,-1.2962 0.465352,-2.77416 -1.145772,-2.77416 -1.408705,0 -2.210462,1.34178 -1.659588,2.77736 0.556088,1.44911 1.60105,1.44791 2.80536,-0.002 z m 12.313337,-2.32194 c -0.390859,-1.17409 -2.890682,-1.54848 -3.860907,-0.57826 -0.441986,0.44199 -0.592592,1.35356 -0.334652,2.02571 0.388618,1.01276 0.812208,1.06571 2.472684,0.30915 1.102036,-0.50212 1.877341,-1.2926 1.722875,-1.7566 z m 6.239993,-4.81036 c 0.65246,-1.70027 -1.00391,-3.29923 -2.189514,-2.11363 -1.002046,1.00203 -0.381273,3.34048 0.886768,3.34048 0.457585,0 1.043808,-0.55209 1.302746,-1.22685 z M 231.35791,177.9439 c -0.91188,-0.57734 -0.77916,-1.33243 0.78283,-4.45409 3.00481,-6.00509 4.62226,-5.4184 4.01098,1.45486 -0.28326,3.18488 -0.57211,3.71669 -2.01323,3.70642 -0.92538,-0.007 -2.17665,-0.32483 -2.78058,-0.70719 z m -115.93406,-2.05959 c 0,-2.91331 -1.96337,-6.2417 -5.08754,-8.62462 -2.53388,-1.93269 -2.7407,-2.40833 -2.7407,-6.30306 v -4.21262 h 9.39388 9.39389 v 10.56811 10.56812 h -5.47977 c -5.35165,0 -5.47976,-0.0466 -5.47976,-1.99593 z m 13.308,-2.3096 v -4.30552 h 9.00248 9.00245 v 4.30552 4.30553 h -9.00245 -9.00248 z m 19.57058,-0.3452 c 0,-2.55791 0.35227,-4.86845 0.78283,-5.13456 1.01352,-0.62639 1.0156,-4.06925 0.002,-4.69517 -1.18547,-0.73266 1.01279,-4.41107 4.54106,-7.59864 3.84901,-3.47737 7.90489,-4.87436 12.17136,-4.19225 3.36263,0.5376 8.90121,3.37898 10.61745,5.44691 0.85887,1.03487 1.21567,0.91673 2.81872,-0.93341 1.43129,-1.65191 2.04534,-1.91167 2.78903,-1.17992 1.32571,1.30441 -1.22189,5.25601 -2.95883,4.58948 -1.06882,-0.41014 -1.06183,-0.23278 0.0581,1.47672 1.74491,2.66305 1.61001,3.30928 -0.81798,3.91864 -1.15003,0.28865 -2.98428,1.2275 -4.07611,2.08633 l -1.98514,1.56151 -0.59561,-1.61004 c -1.19091,-3.21936 -6.019,-1.05916 -4.97619,2.22646 0.27287,0.85974 1.15068,1.77092 1.9507,2.02484 1.387,0.44021 1.39424,0.60533 0.15556,3.5548 -1.45682,3.46913 -3.60253,4.10954 -4.51557,1.34768 l -0.58227,-1.76136 -0.60688,1.95708 c -0.54757,1.76585 -0.59246,1.7104 -0.45939,-0.5677 0.1955,-3.34731 -1.12442,-3.62438 -1.95713,-0.41085 -0.9223,3.5593 -1.51711,3.17767 -0.91511,-0.58711 0.63267,-3.95646 -0.97191,-4.31568 -1.70971,-0.38276 -0.2836,1.51169 -0.79031,2.91829 -1.12603,3.12576 -0.33571,0.20748 -0.31841,-0.94128 0.0384,-2.55281 l 0.64865,-2.93007 -1.51536,1.84807 c -0.83346,1.01645 -1.51537,2.33746 -1.51537,2.9356 0,0.74688 -0.98079,1.0875 -3.13129,1.0875 h -3.13129 z m 7.38091,-6.75611 c 2.25653,-2.25653 1.0101,-5.32937 -1.98967,-4.90523 -3.09443,0.43753 -2.88507,6.05313 0.22831,6.12338 0.29216,0.007 1.08478,-0.54157 1.76136,-1.21815 z m -3.2039,-1.56235 c -0.65244,-1.70027 1.00393,-3.29923 2.18951,-2.11363 1.00205,1.00203 0.38128,3.34048 -0.88676,3.34048 -0.45757,0 -1.04381,-0.55209 -1.30275,-1.22685 z m 16.95922,12.15518 c 0,-1.77735 3.1978,-6.93102 5.5055,-8.8728 3.2637,-2.74622 6.28306,-2.65446 9.63996,0.29294 1.47111,1.29165 3.06386,2.34846 3.53944,2.34846 1.01181,0 3.41084,-5.3434 2.82478,-6.29165 -0.21946,-0.35507 -0.02,-0.88027 0.44489,-1.16712 0.7854,-0.48539 2.19435,-3.40028 2.07053,-4.28357 -0.0302,-0.21524 0.98077,-1.44822 2.24654,-2.7399 1.94021,-1.97986 2.79289,-2.30515 5.43271,-2.0725 3.6831,0.3246 7.12206,3.16282 7.85043,6.47909 0.26933,1.22621 0.77221,2.40407 1.11751,2.61748 0.3453,0.21347 0.44935,1.97158 0.2312,3.90702 -0.35806,3.17664 -0.15844,3.74152 2.0518,5.80621 1.34666,1.25797 2.44848,2.85043 2.44848,3.5388 0,1.1181 -2.42087,1.25155 -22.70188,1.25155 -15.19254,0 -22.70189,-0.26926 -22.70189,-0.81401 z m 46.03184,-1.53445 c -0.64261,-1.50694 -1.75135,-3.22336 -2.46387,-3.81427 -3.21804,-2.66878 -0.28861,-11.05938 3.86119,-11.05938 4.14104,0 6.64568,8.46286 3.37945,11.41875 -0.90233,0.81658 -2.08334,2.54447 -2.62449,3.83974 l -0.98392,2.35503 z m 3.6414,0.19571 c 3.15126,-5.75693 5.61059,-6.71027 7.36686,-2.85568 1.93009,4.2361 1.33974,5.00845 -3.8282,5.00845 h -4.71705 z m 9.57603,1.36994 c -0.2237,-0.64582 -0.60992,-2.10681 -0.85827,-3.24663 -0.24835,-1.13983 -1.72017,-3.59088 -3.27071,-5.44676 -2.50162,-2.99422 -2.76422,-3.71798 -2.33134,-6.4251 0.67368,-4.21303 2.27986,-7.04497 4.74335,-8.36341 1.81403,-0.97084 2.3575,-0.96518 4.17661,0.0435 2.65185,1.47048 4.82832,5.75864 4.82989,9.51601 7.8e-4,2.13845 -0.64254,3.64151 -2.43061,5.67802 -1.3375,1.52334 -2.8864,4.26568 -3.442,6.09411 -0.60604,1.99447 -1.17291,2.85467 -1.41692,2.15022 z M 50.457775,168.88777 c -0.531435,-0.64035 -0.768649,-1.67923 -0.52713,-2.30861 0.286609,-0.74688 0.0659,-1.00116 -0.635219,-0.73208 -1.112487,0.42692 -3.11922,-2.4088 -2.459747,-3.47586 0.205038,-0.33166 -0.786512,-0.46771 -2.203339,-0.3023 -2.238377,0.26131 -2.795552,-0.0544 -4.250613,-2.40876 -1.968388,-3.1849 -2.125717,-4.92397 -0.501899,-5.5471 0.720407,-0.27642 1.670794,0.31024 2.464229,1.52119 0.834066,1.27292 1.874479,1.88793 2.937149,1.73619 1.393638,-0.19905 1.645586,-0.77435 1.645586,-3.7577 0,-4.04784 1.641614,-4.82849 3.292348,-1.56564 1.437597,2.84158 1.240281,4.96892 -0.698128,7.52694 -0.941222,1.2421 -1.411368,1.9946 -1.044784,1.67226 0.828141,-0.72822 5.341886,7.0056 4.697369,8.04844 -0.666285,1.07806 -1.599408,0.93822 -2.715822,-0.40697 z m 117.547375,-0.52745 c 0.14268,-1.00703 0.78769,-1.831 1.43351,-1.831 1.69774,0 1.46387,3.05409 -0.25927,3.38592 -1.11166,0.21414 -1.37531,-0.13514 -1.17424,-1.55492 z m -40.49368,-1.51424 c -0.80375,-1.30052 1.28799,-4.61706 3.69801,-5.86333 2.57693,-1.33259 10.26244,-1.45981 12.64319,-0.20926 2.89494,1.52061 5.44255,4.47094 4.95588,5.73925 -0.37655,0.98123 -2.24447,1.19084 -10.61204,1.19084 -6.51498,0 -10.34504,-0.30736 -10.68502,-0.85745 z m 82.29918,-8.31693 c -0.95192,-2.30151 -2.37958,-4.08139 -4.0772,-5.08299 -2.87659,-1.69725 -2.76613,-2.72825 0.62175,-5.80249 2.9389,-2.66685 4.99053,-3.42483 9.27005,-3.42483 4.42128,0 6.36963,0.7619 9.56361,3.73993 l 2.12681,1.98299 -2.32739,2.38048 c -1.28004,1.30927 -2.75155,3.55355 -3.27,4.98733 -0.67778,1.87439 -1.28129,2.46614 -2.14788,2.10606 -2.92473,-1.21521 -3.82292,-1.10774 -5.99142,0.71694 l -2.30348,1.93823 z m 31.22526,2.71609 c -0.29029,-0.75345 -1.01853,-1.36994 -1.61829,-1.36994 -1.28797,0 -1.44801,-1.25229 -0.2543,-1.99003 0.45991,-0.28425 0.66062,-0.97435 0.44602,-1.53357 -0.27414,-0.71441 0.4243,-1.01678 2.34882,-1.01678 1.99555,0 2.62746,0.29067 2.32805,1.07088 -0.22601,0.589 -0.0741,1.2791 0.33769,1.53357 1.13929,0.70412 0.89325,1.93593 -0.38669,1.93593 -0.62443,0 -1.48142,0.61649 -1.90441,1.36994 -0.73246,1.30472 -0.79421,1.30472 -1.29689,0 z M 94.781953,158.54306 c -1.008592,-1.00859 -0.441032,-2.78987 1.333702,-4.18588 1.399673,-1.101 1.74573,-1.99873 1.476784,-3.83109 -0.300145,-2.04503 -0.102741,-2.39313 1.356647,-2.39313 1.558464,0 1.675564,0.31042 1.338204,3.54769 -0.20326,1.95122 -0.814847,4.08408 -1.35893,4.73967 -1.329441,1.60187 -3.537062,2.73206 -4.146407,2.12274 z m 36.820077,-2.91604 c -0.5681,-1.48041 1.19088,-2.89111 2.55421,-2.04852 1.2962,0.80109 0.54139,3.16551 -1.01055,3.16551 -0.61327,0 -1.30792,-0.50266 -1.54366,-1.11699 z m -25.24703,-1.3389 c -1.40171,-2.26802 7.17391,-5.83265 12.35885,-5.1372 3.48926,0.46799 8.45236,3.35523 8.45236,4.91705 0,0.90144 -1.90639,1.1104 -10.1305,1.1104 -6.72414,0 -10.31552,-0.29934 -10.68071,-0.89025 z m 44.29589,-0.28399 c -0.77821,-0.93769 -0.77492,-1.41474 0.0155,-2.36821 0.88464,-1.06596 1.14646,-1.05322 2.44155,0.11894 1.10312,0.99832 1.24081,1.56563 0.57473,2.36821 -1.12793,1.35911 -1.82886,1.33166 -3.03266,-0.11894 z m -14.04312,-1.92758 c -1.49527,-0.92414 -0.65388,-3.55217 1.13728,-3.55217 0.98852,0 1.64127,0.60526 1.79201,1.66169 0.25858,1.81239 -1.36268,2.85871 -2.92929,1.89048 z m -6.17198,-5.15917 c 0.35407,-1.7004 1.74338,-1.80443 2.06115,-0.15445 0.16509,0.85688 -0.21902,1.36994 -1.02522,1.36994 -0.75207,0 -1.1836,-0.50636 -1.03593,-1.21558 z m -32.494986,-0.0892 c -0.287053,-0.28705 -0.521893,-1.34386 -0.521893,-2.34848 0,-1.3047 0.447334,-1.82659 1.565657,-1.82659 1.217712,0 1.565632,0.52189 1.565632,2.34848 0,2.20844 -1.310311,3.12568 -2.609396,1.82659 z m -4.12881,-6.92799 c -1.454395,-1.45441 -1.906144,-2.63097 -1.72576,-4.49482 0.362434,-3.74511 2.734818,-3.88018 3.426134,-0.19506 0.46695,2.48903 0.780077,2.80265 2.588806,2.59298 1.640548,-0.19017 2.109496,-0.71455 2.313556,-2.58698 0.35964,-3.29984 1.54464,-4.26894 2.92805,-2.39456 1.5699,2.12702 1.40704,6.19904 -0.31004,7.75299 -2.21883,2.00802 -6.879118,1.66709 -9.220746,-0.67454 z"
       style="fill:#1a1a1a;fill-opacity:1;stroke-width:0.78282344" />
    <flowRoot
       xml:space="preserve"
       id="flowRoot21"
       style="font-style:normal;font-variant:normal;font-weight:normal;font-stretch:normal;font-size:40px;line-height:1.25;font-family:Calibri;-inkscape-font-specification:Calibri;letter-spacing:0px;word-spacing:0px;fill:#000000;fill-opacity:1;stroke:none"
       transform="scale(0.26458333)"><flowRegion
         id="flowRegion23"><rect
           id="rect25"
           width="261.42856"
           height="268.57144"
           x="410"
           y="489.66254" /></flowRegion><flowPara
         id="flowPara27" /></flowRoot>    <text
       xml:space="preserve"
       style="font-style:normal;font-variant:normal;font-weight:normal;font-stretch:normal;font-size:21.12823868px;line-height:1.25;font-family:Aclonica;-inkscape-font-specification:Aclonica;letter-spacing:0px;word-spacing:0px;fill:#000000;fill-opacity:1;stroke:none;stroke-width:0.52820599"
       x="60.632721"
       y="214.45924"
       id="text30"><tspan
         sodipodi:role="line"
         id="tspan28"
         x="60.632721"
         y="214.45924"
         style="font-style:normal;font-variant:normal;font-weight:normal;font-stretch:normal;font-family:Aclonica;-inkscape-font-specification:Aclonica;stroke-width:0.52820599">Fisica y Quimica</tspan></text>
    <path
       style="fill:#000000;stroke:#000000;stroke-width:0.26458332px;stroke-linecap:butt;stroke-linejoin:miter;stroke-opacity:1"
       d="m 81.216526,195.67145 -0.935443,-0.50113 c -1.905957,0.77117 -8.313373,4.32074 -5.362094,6.38105 3.091601,2.15826 6.297537,-5.87992 6.297537,-5.87992 z"
       id="path32"
       inkscape:connector-curvature="0"
       sodipodi:nodetypes="ccsc" />
    <path
       style="fill:#000000;stroke:#000000;stroke-width:0.26458332px;stroke-linecap:butt;stroke-linejoin:miter;stroke-opacity:1"
       d="m 191.47117,195.24593 -0.93545,-0.50113 c -1.90595,0.77117 -8.31337,4.32074 -5.36209,6.38105 3.0916,2.15826 6.29754,-5.87992 6.29754,-5.87992 z"
       id="path32-6"
       inkscape:connector-curvature="0"
       sodipodi:nodetypes="ccsc" />
  </g>
</svg>
