<?xml version="1.0" encoding="UTF-8" standalone="no"?>
<!-- Created with Inkscape (http://www.inkscape.org/) -->

<svg
   xmlns:dc="http://purl.org/dc/elements/1.1/"
   xmlns:cc="http://creativecommons.org/ns#"
   xmlns:rdf="http://www.w3.org/1999/02/22-rdf-syntax-ns#"
   xmlns:svg="http://www.w3.org/2000/svg"
   xmlns="http://www.w3.org/2000/svg"
   xmlns:sodipodi="http://sodipodi.sourceforge.net/DTD/sodipodi-0.dtd"
   xmlns:inkscape="http://www.inkscape.org/namespaces/inkscape"
   width="131mm"
   height="54mm"
   viewBox="0 0 131 54"
   version="1.1"
   id="svg8"
   inkscape:version="0.92.4 (5da689c313, 2019-01-14)"
   sodipodi:docname="21.svg">
  <defs
     id="defs2" />
  <sodipodi:namedview
     id="base"
     pagecolor="#ffffff"
     bordercolor="#666666"
     borderopacity="1.0"
     inkscape:pageopacity="0.0"
     inkscape:pageshadow="2"
     inkscape:zoom="1.979899"
     inkscape:cx="247.07424"
     inkscape:cy="44.239435"
     inkscape:document-units="mm"
     inkscape:current-layer="layer1"
     showgrid="false"
     inkscape:window-width="1920"
     inkscape:window-height="1001"
     inkscape:window-x="-9"
     inkscape:window-y="-9"
     inkscape:window-maximized="1" />
  <metadata
     id="metadata5">
    <rdf:RDF>
      <cc:Work
         rdf:about="">
        <dc:format>image/svg+xml</dc:format>
        <dc:type
           rdf:resource="http://purl.org/dc/dcmitype/StillImage" />
        <dc:title></dc:title>
      </cc:Work>
    </rdf:RDF>
  </metadata>
  <g
     inkscape:label="Capa 1"
     inkscape:groupmode="layer"
     id="layer1"
     transform="translate(0,-243)">
    <path
       inkscape:connector-curvature="0"
       id="path23"
       d="m 80.072923,283.01425 c -0.15919,-0.12488 -0.108519,-0.63067 0.123198,-1.2299 0.119541,-0.30911 0.217348,-0.71985 0.217348,-0.91274 v -0.35072 l -0.296824,0.23284 c -0.163251,0.12807 -0.409542,0.41 -0.547309,0.62652 -0.185276,0.29119 -0.345466,0.39367 -0.615355,0.39367 -0.349791,0 -0.363714,-0.027 -0.336988,-0.65274 0.02378,-0.55645 -0.0139,-0.66316 -0.255409,-0.72328 -0.207943,-0.0518 -0.283294,-0.17508 -0.283294,-0.46355 0,-0.5034 -0.172965,-0.49971 -0.483006,0.0102 -0.134848,0.22182 -0.407032,0.45159 -0.604858,0.51059 -0.197827,0.059 -0.490928,0.30908 -0.651332,0.55573 -0.342267,0.5263 -0.644051,0.65162 -0.964253,0.40043 -0.219031,-0.17182 -0.21432,-0.42958 0.01986,-1.0867 0.04545,-0.1276 -0.08503,-0.24953 -0.39819,-0.37209 -0.256209,-0.10027 -0.532668,-0.1823 -0.614351,-0.1823 -0.08169,0 -0.269029,-0.0855 -0.416316,-0.19011 -0.32071,-0.22769 -0.268339,-0.26673 -0.837977,0.62469 -0.497232,0.77811 -0.706223,0.90899 -1.152371,0.72169 -0.25868,-0.1086 -0.320869,-0.0546 -0.617186,0.53501 -0.426334,0.84844 -0.630724,1.03038 -0.93499,0.83229 -0.124439,-0.081 -0.226251,-0.27265 -0.226251,-0.42589 v -0.27859 l -0.347722,0.31712 c -0.313848,0.28623 -0.385348,0.30366 -0.734003,0.17905 -0.212461,-0.0759 -0.437752,-0.24721 -0.500652,-0.38059 -0.111912,-0.23733 -0.119845,-0.23597 -0.369832,0.0633 -0.172694,0.20675 -0.358876,0.29431 -0.574624,0.27021 -0.289516,-0.0323 -0.319159,-0.10237 -0.319159,-0.75409 0,-0.97387 -0.210547,-1.06435 -1.106874,-0.47565 -1.105477,0.72607 -1.629325,0.56211 -1.34276,-0.42026 0.08082,-0.27705 0.09092,-0.50372 0.02245,-0.50372 -0.06847,0 -0.486801,0.56674 -0.929639,1.25941 -0.701275,1.09691 -0.85207,1.25939 -1.168803,1.25939 -0.299627,0 -0.363653,-0.0555 -0.363653,-0.3156 0,-0.17358 0.07082,-0.49559 0.157382,-0.71557 0.212212,-0.53929 0.25563,-1.8311 0.06155,-1.8311 -0.08335,0 -0.370818,0.31287 -0.638799,0.69527 -0.267986,0.3824 -0.579528,0.72305 -0.692317,0.757 -0.322447,0.0971 -0.671096,-0.20161 -0.595839,-0.51044 0.05318,-0.21824 0.01418,-0.26346 -0.191031,-0.22135 -0.308469,0.0633 -0.481384,-0.0152 -0.688624,-0.3126 -0.13551,-0.19444 -0.226946,-0.10891 -0.741129,0.69333 -0.634403,0.9898 -0.922937,1.25125 -1.26671,1.14776 -0.330148,-0.0994 -0.286476,-1.19382 0.07646,-1.91614 0.163488,-0.32537 0.278423,-0.60609 0.25541,-0.62382 -0.023,-0.0177 -0.362931,0.0319 -0.755384,0.11019 -0.502164,0.10025 -0.831043,0.25537 -1.110161,0.52364 -0.285262,0.2742 -0.469243,0.35934 -0.655331,0.30334 -0.207788,-0.0626 -0.241508,-0.16201 -0.171288,-0.50516 0.0481,-0.23498 0.105839,-0.52346 0.128323,-0.64103 0.0681,-0.35613 -0.735856,-0.35686 -1.156221,-7.8e-4 -0.271417,0.22974 -0.428694,0.27418 -0.76523,0.2162 -0.40824,-0.0704 -0.446478,-0.0385 -1.054988,0.87875 -0.651354,0.98182 -1.00263,1.19852 -1.281125,0.79031 -0.121587,-0.17822 -0.09545,-0.37355 0.112006,-0.83697 0.465686,-1.04026 0.154491,-1.18992 -0.64928,-0.31227 -0.392166,0.42821 -0.610065,0.56946 -0.838964,0.54383 -0.266083,-0.0298 -0.314217,-0.12104 -0.345141,-0.65434 -0.01975,-0.34085 -0.06874,-0.64546 -0.108845,-0.67692 -0.182441,-0.14311 -0.802199,0.23769 -1.118203,0.68707 -0.4481,0.63724 -0.947032,0.69841 -0.886734,0.10872 0.02399,-0.23483 -0.04396,-0.43689 -0.173357,-0.5152 -0.117075,-0.0708 -0.233367,-0.28341 -0.258432,-0.47233 -0.04032,-0.30387 -0.129696,-0.21343 -0.775308,0.78444 -0.401361,0.62035 -0.814285,1.15469 -0.917613,1.18742 -0.103329,0.0327 -0.301977,-0.0215 -0.441437,-0.1205 -0.23517,-0.16695 -0.282736,-0.1393 -0.65575,0.38125 -0.504172,0.70359 -1.081168,1.08573 -1.362647,0.90247 -0.344738,-0.22444 -0.220646,-0.65722 0.61129,-2.13195 0.933677,-1.65507 0.99527,-2.17104 0.12936,-1.08366 -1.914572,2.40425 -1.952794,2.44442 -2.290344,2.40681 -0.515006,-0.0574 -0.386589,-0.61103 0.385205,-1.66068 0.743159,-1.01072 0.767474,-1.06632 0.466479,-1.06632 -0.282714,0 -0.678896,0.41922 -1.704174,1.80324 -0.875514,1.18186 -1.251722,1.42388 -1.554223,0.99985 -0.101586,-0.1424 -0.182568,-0.11146 -0.449468,0.17173 -0.179055,0.18999 -0.41508,0.34543 -0.524499,0.34543 -0.370675,0 -0.373836,-0.35243 -0.0094,-1.05587 0.199696,-0.38555 0.363084,-0.72245 0.363084,-0.74868 0,-0.0262 -0.202095,0.0857 -0.449092,0.24876 -0.838667,0.55358 -1.475701,0.524 -1.857563,-0.0862 -0.227944,-0.3643 -0.33707,-0.3785 -0.578447,-0.0753 -0.218506,0.27446 -0.595227,0.29682 -0.826216,0.049 -0.276531,-0.29667 -0.876149,-0.0972 -1.167678,0.38838 -0.50154,0.83543 -1.131795,1.50896 -1.412005,1.50896 -0.417215,0 -0.352273,-0.42403 0.247008,-1.61287 0.342162,-0.67877 0.492969,-1.1349 0.435065,-1.31589 -0.04876,-0.15233 -0.137506,-0.27699 -0.197247,-0.27699 -0.05974,0 -0.427072,0.46752 -0.816292,1.03893 -0.715016,1.04972 -0.995894,1.27391 -1.298566,1.03647 -0.124224,-0.0975 -0.06651,-0.28969 0.228733,-0.76192 0.217183,-0.34739 0.394875,-0.65949 0.394875,-0.69358 0,-0.0341 -0.213448,-0.0458 -0.474335,-0.0262 -0.41342,0.0313 -0.532977,0.12251 -0.931029,0.71053 -0.51388,0.75913 -0.807974,0.95236 -1.071029,0.70371 -0.137766,-0.13022 -0.09129,-0.30862 0.223901,-0.85959 0.424458,-0.74196 0.394538,-0.97205 -0.08238,-0.63348 -0.403204,0.28625 -1.021941,0.0799 -1.021941,-0.3408 0,-0.36505 -0.150012,-0.36468 -0.588469,0.002 -0.259591,0.21676 -0.442546,0.27375 -0.723451,0.22536 -0.290613,-0.05 -0.472238,0.0141 -0.799898,0.28232 -0.249243,0.20408 -0.573306,0.3471 -0.786478,0.3471 -0.199404,0 -0.486509,0.088 -0.638005,0.19555 -0.354745,0.25184 -0.749989,0.0796 -0.816034,-0.35573 -0.04612,-0.3037 -0.06272,-0.29719 -1.004482,0.39392 -1.453994,1.06697 -2.075368,1.38926 -2.528129,1.31124 -0.210872,-0.0363 -0.562698,-0.0126 -0.781833,0.0528 -0.30441,0.0908 -0.499814,0.0777 -0.82807,-0.0555 -0.236307,-0.0959 -0.430653,-0.21161 -0.431877,-0.25722 -0.0011,-0.0456 -0.06387,-0.15939 -0.139195,-0.25284 -0.111404,-0.13822 -0.232153,-0.0827 -0.647305,0.2978 -0.624871,0.57267 -1.349265,0.87486 -1.722047,0.71835 -0.31281,-0.13133 -0.330909,-0.50883 -0.0433,-0.90348 0.11472,-0.15743 0.210905,-0.3824 0.213752,-0.49994 0.0039,-0.17072 -0.06089,-0.19679 -0.323214,-0.12958 -0.180611,0.0463 -0.538163,0.0783 -0.794554,0.0711 -0.256391,-0.007 -0.509059,0.0414 -0.561485,0.10801 -0.0524,0.0665 -0.261113,0.17044 -0.46376,0.23089 -0.500647,0.14931 -0.770785,-0.047 -0.770785,-0.56018 V 279.728 l -0.401361,0.29558 c -0.739988,0.54496 -1.787866,0.52283 -1.787866,-0.0378 0,-0.11823 -0.06125,-0.21497 -0.136116,-0.21497 -0.3162752,0 -0.2859142,-0.48421 0.07638,-1.21824 0.252165,-0.51089 0.398228,-1.04543 0.417937,-1.52954 0.01666,-0.40932 0.08062,-0.93349 0.142113,-1.16486 l 0.111807,-0.42065 -0.666231,-0.0784 c -0.9438486,-0.11103 -1.0893319,-0.28961 -0.7758208,-0.9523 0.1384998,-0.29278 0.460412,-1.00536 0.7153578,-1.58351 l 0.463535,-1.05119 -0.347954,-0.22102 c -0.345489,-0.21946 -0.346206,-0.22463 -0.101509,-0.72725 0.323347,-0.66419 0.312954,-0.70977 -0.112006,-0.49134 -0.1971529,0.10133 -0.4386229,0.14537 -0.536612,0.0979 -0.1131365,-0.0548 -0.4012181,0.11533 -0.7893519,0.46629 -0.4268462,0.38598 -0.6831933,0.53101 -0.8498972,0.48083 -0.4226319,-0.12722 -0.2609587,-0.52676 0.872701,-2.15666 0.6112736,-0.87885 1.0710127,-1.62961 1.021643,-1.66834 -0.04937,-0.0387 -0.3106041,0.12999 -0.5805154,0.37493 -0.4555634,0.41343 -0.5183483,0.43549 -0.8756964,0.30776 -0.2117158,-0.0757 -0.3854253,-0.22885 -0.3860155,-0.34039 -5.516e-4,-0.11156 0.4427272,-0.88321 0.9851535,-1.7148 0.9433632,-1.44626 0.974193,-1.51889 0.7094392,-1.67085 -0.3066821,-0.17603 -0.2813408,-0.42778 0.1146811,-1.13921 0.2290916,-0.41155 0.2274646,-0.42934 -0.039275,-0.42934 -0.4550945,0 -0.4884838,-0.33634 -0.086764,-0.87408 0.2957216,-0.39585 0.3536086,-0.5864 0.2763266,-0.90956 l -0.097798,-0.40908 -0.4629936,0.35203 c -0.8331061,0.63343 -1.0976999,0.38681 -0.5647558,-0.52639 0.1903738,-0.3262 0.3951503,-0.81586 0.4550669,-1.08812 0.1023469,-0.46511 0.137711,-0.49503 0.5851655,-0.49503 0.400666,0 0.65746,-0.14305 1.618414,-0.90161 0.642021,-0.5068 1.229741,-0.87874 1.342121,-0.84934 0.132449,0.0346 -0.107714,0.30361 -0.711485,0.79685 -0.833465,0.68088 -1.094197,1.01135 -0.797946,1.01135 0.06241,0 0.268554,-0.0852 0.458095,-0.18935 0.266276,-0.14631 0.403684,-0.16042 0.604422,-0.062 0.330749,0.16204 0.696846,-0.0529 1.596085,-0.93689 0.360029,-0.35394 0.737396,-0.64353 0.83859,-0.64353 0.264466,0 0.235269,0.0811 -0.253854,0.70463 -0.240814,0.30702 -0.437846,0.60896 -0.437846,0.67098 0,0.17733 0.381995,0.13178 0.596673,-0.0711 0.143977,-0.1361 0.359554,-0.16934 0.829101,-0.12781 0.622306,0.055 0.652501,0.0415 1.566325,-0.70043 0.51248,-0.41609 0.984801,-0.71374 1.04961,-0.66145 0.0648,0.0522 -0.271759,0.37388 -0.74792,0.71466 -0.638187,0.45675 -0.822851,0.65326 -0.702544,0.74763 0.194164,0.15232 1.32784,-0.39224 1.802909,-0.86602 0.315877,-0.31502 0.859991,-0.40287 0.859991,-0.13886 0,0.0868 -0.09851,0.22186 -0.21892,0.30025 -0.370487,0.2412 -0.246401,0.34347 0.416735,0.34347 0.574421,0 0.729039,-0.0671 1.604823,-0.69664 1.041628,-0.74875 1.503375,-0.86359 0.902224,-0.2244 -0.699593,0.74385 -0.450395,0.75751 1.281107,0.0701 1.281128,-0.50858 2.143867,-0.64048 2.143867,-0.32775 0,0.0882 -0.164188,0.34994 -0.364866,0.58162 -0.200684,0.23167 -0.364872,0.48653 -0.364872,0.56637 0,0.32451 0.293051,0.10592 0.764744,-0.57041 0.547705,-0.78533 0.965119,-0.98316 2.10003,-0.99533 0.5361,-0.005 0.622709,0.0317 0.785083,0.33918 0.200121,0.379 0.148131,0.47599 -1.375748,2.56679 -0.364331,0.49988 -0.625334,0.9378 -0.580008,0.97318 0.138859,0.1084 0.578182,-0.39572 1.730674,-1.98593 0.607644,-0.83842 1.234909,-1.61676 1.393929,-1.72965 0.184185,-0.13077 0.514322,-0.20438 0.909588,-0.20285 0.396562,0.002 0.841683,-0.0981 1.233497,-0.27616 0.610755,-0.27754 0.613728,-0.27771 0.798083,-0.0461 0.131451,0.16512 0.281496,0.21346 0.518067,0.16688 0.440427,-0.0867 0.433521,0.11794 -0.03183,0.94341 -0.423029,0.75038 -0.418616,0.73321 -0.188592,0.73321 0.09696,0 0.423393,-0.18928 0.72542,-0.42063 0.480606,-0.36816 0.592016,-0.40532 0.892768,-0.29783 0.317119,0.11335 0.39744,0.0659 1.04068,-0.61595 0.452446,-0.47954 0.781497,-0.72547 0.937736,-0.70083 0.253269,0.04 0.303599,0.43911 0.101421,0.80446 -0.08887,0.1606 -0.03845,0.20036 0.254173,0.20036 0.202068,0 0.56907,0.1495 0.821997,0.33485 0.274341,0.20103 0.65441,0.34973 0.951075,0.37209 0.471416,0.0355 0.528277,-0.004 1.236955,-0.85366 0.758489,-0.9097 1.079044,-1.12362 1.356992,-0.90557 0.111785,0.0877 0.02069,0.28945 -0.317355,0.70268 -0.355451,0.43452 -0.450417,0.65393 -0.379275,0.87628 0.07072,0.22104 -0.02129,0.43865 -0.361072,0.85405 -0.250787,0.30657 -0.413927,0.61079 -0.362533,0.67601 0.174923,0.22204 0.459463,0.11942 0.702892,-0.25349 0.597836,-0.91582 2.268648,-2.89415 2.470457,-2.92515 0.390853,-0.06 0.401753,0.29169 0.02659,0.85833 l -0.364011,0.54981 0.408002,-0.40036 c 0.89908,-0.88224 1.163508,-1.0695 1.406843,-0.99624 0.132945,0.04 0.241723,0.16455 0.241723,0.27673 0,0.11219 -0.558252,0.97526 -1.240563,1.91795 -1.220318,1.686 -1.393835,2.00694 -1.085018,2.00694 0.395305,0 0.75492,-0.30579 1.57936,-1.34302 1.461077,-1.8382 2.537408,-2.94625 2.901519,-2.98703 0.419289,-0.047 0.548918,0.21353 0.340082,0.68347 -0.203999,0.45907 -0.121797,0.52245 0.35785,0.27592 0.403154,-0.20723 0.79596,-0.16992 0.794769,0.0755 -4.36e-4,0.0807 -0.232617,0.5012 -0.516059,0.93449 -0.283437,0.43327 -0.481738,0.81415 -0.440659,0.84637 0.152969,0.11999 0.542366,-0.25853 0.98709,-0.95952 0.448988,-0.7077 0.725508,-0.91833 1.018896,-0.77608 0.144937,0.0703 0.11131,0.3445 -0.09667,0.78838 -0.0661,0.14109 0.04281,0.0862 0.283713,-0.14311 0.606127,-0.57683 0.873098,-0.50543 0.813667,0.21763 -0.01373,0.16692 0.04501,0.3374 0.130485,0.37885 0.08548,0.0415 0.155429,0.17536 0.155429,0.29758 0,0.39915 0.248437,0.23569 0.850967,-0.55992 0.780572,-1.0307 0.995967,-1.17156 1.315535,-0.86031 0.328846,0.3203 0.695516,0.4031 0.905616,0.20451 0.09597,-0.0907 0.297801,-0.16493 0.448513,-0.16493 0.450274,0 0.329861,0.41419 -0.455712,1.56755 -0.401361,0.58926 -0.729744,1.09588 -0.729744,1.12581 0,0.0867 0.78661,0.0595 0.960298,-0.0332 0.08667,-0.0463 0.623359,-0.62609 1.192644,-1.2885 1.076749,-1.2529 1.678436,-1.82964 1.908774,-1.82964 0.07428,0 0.210177,0.071 0.302004,0.15781 0.219417,0.2074 0.100924,0.43967 -1.076793,2.11071 -0.523462,0.74273 -0.951753,1.41202 -0.951753,1.4873 0,0.31313 0.262431,0.0757 1.021626,-0.92408 0.978562,-1.28873 2.028817,-2.5168 2.246832,-2.62723 0.08873,-0.0449 0.247257,-0.0143 0.352279,0.068 0.157288,0.12335 0.134804,0.22438 -0.127556,0.57321 -0.175176,0.2329 -0.276834,0.45614 -0.225908,0.4961 0.127561,0.10007 0.923968,-0.50646 1.348478,-1.02696 0.341379,-0.41859 0.677335,-0.54331 0.855237,-0.3175 0.130981,0.16626 -0.180015,1.01517 -0.599662,1.63687 -0.202912,0.30061 -0.346043,0.60042 -0.318076,0.66623 0.02797,0.0658 0.574748,-0.3471 1.215076,-0.9176 0.640321,-0.5705 1.243056,-1.03775 1.339407,-1.03833 0.09635,-4.3e-4 0.239197,0.0886 0.317438,0.19835 0.07824,0.10968 0.169854,0.17407 0.20358,0.14312 0.0337,-0.031 0.326887,-0.36542 0.651458,-0.74324 0.831297,-0.96768 1.279011,-1.27797 1.570331,-1.08831 0.301116,0.19604 0.204197,0.41929 -0.721001,1.66076 -0.422351,0.56673 -1.002414,1.39107 -1.289028,1.83186 -0.713588,1.09745 -0.839615,2.42409 -0.134942,1.42054 0.13674,-0.19473 0.759349,-1.02561 1.383569,-1.84639 1.759491,-2.3135 2.130761,-2.66819 2.494387,-2.38294 0.240416,0.1886 0.310532,0.15052 0.835737,-0.45398 0.492092,-0.56639 0.902136,-0.72526 1.056649,-0.40939 0.04391,0.0898 -0.178911,0.5831 -0.495208,1.09619 -0.604831,0.98114 -0.703305,1.29074 -0.379545,1.19328 0.107548,-0.0324 0.284402,0.0251 0.39301,0.12778 0.170968,0.16161 0.07618,0.37001 -0.706356,1.55295 -0.968787,1.46447 -0.975053,1.47657 -0.765026,1.47657 0.07634,0 0.3843,-0.34776 0.684347,-0.77281 1.420125,-2.01174 3.687759,-4.72276 3.950366,-4.72276 0.108972,0 0.24905,0.10797 0.311272,0.23992 0.100322,0.21275 0.19872,0.14791 0.868729,-0.57245 0.415572,-0.44682 0.824341,-0.81239 0.908375,-0.81239 0.299831,0 0.331019,0.37981 0.06323,0.76989 -0.255068,0.37154 -0.256507,0.40341 -0.02295,0.50595 0.368457,0.16176 0.319452,0.33828 -0.46658,1.68061 -1.164379,1.98844 -1.171351,2.37112 -0.01236,0.67866 0.432412,-0.63146 0.688136,-0.88732 0.886839,-0.88732 0.15357,0 0.279223,0.0515 0.279223,0.11449 0,0.2073 0.461024,0.11955 0.902306,-0.17173 0.238492,-0.15742 0.524791,-0.28623 0.636212,-0.28623 0.111427,0 0.27289,-0.10304 0.35881,-0.22899 0.08592,-0.12594 0.254483,-0.22897 0.374586,-0.22897 0.438226,0 0.394213,0.37596 -0.133778,1.14281 -0.29298,0.42551 -0.532701,0.79785 -0.532701,0.82739 0,0.0295 0.407694,0.0567 0.90598,0.0604 0.738377,0.005 0.951963,0.0513 1.1545,0.24743 0.344159,0.33342 0.512291,0.30342 0.893635,-0.15947 0.375314,-0.45556 0.757606,-0.59774 1.066473,-0.39665 0.300437,0.1956 0.265299,0.44876 -0.164498,1.18522 -0.616895,1.05704 -0.333822,0.95519 0.511757,-0.18414 0.433862,-0.58458 0.91464,-1.23032 1.068397,-1.43498 0.309049,-0.41135 0.605559,-0.47517 0.81882,-0.17623 0.12082,0.16936 0.232291,0.11512 0.823497,-0.40072 0.445948,-0.38909 0.799931,-0.59658 1.017781,-0.59658 0.210232,0 0.478428,-0.14851 0.723649,-0.40072 0.451945,-0.46483 0.706356,-0.50119 1.023259,-0.14627 0.322431,0.36113 0.28624,0.63216 -0.210651,1.5774 -0.240814,0.45811 -0.437845,0.87738 -0.437845,0.93169 0,0.27317 0.487601,0.0275 1.167589,-0.5882 0.522745,-0.47336 0.864526,-0.68696 1.099223,-0.68696 0.374817,0 0.57384,0.30098 0.414468,0.62679 -0.0812,0.166 -0.04237,0.18714 0.222615,0.12115 0.182111,-0.0454 0.409642,-0.0222 0.5259,0.0535 0.166081,0.10812 0.247218,0.054 0.428088,-0.28557 0.289482,-0.5435 0.718011,-0.5184 0.786864,0.046 0.0422,0.34604 0.483243,0.79727 0.789875,0.80813 0.05913,0.003 0.203552,-0.17651 0.320936,-0.3969 0.163295,-0.30659 0.299219,-0.40073 0.578613,-0.40073 0.297177,0 0.462513,-0.13654 0.887925,-0.73328 0.593131,-0.83202 0.850317,-1.03889 1.171396,-0.94224 0.377664,0.11368 0.414407,0.40375 0.140905,1.11237 -0.144159,0.3735 -0.224447,0.70866 -0.178415,0.74478 0.04606,0.0361 0.240472,-0.0149 0.432081,-0.11341 0.317654,-0.16327 0.379027,-0.16222 0.696046,0.012 0.327087,0.17972 0.356902,0.17871 0.503494,-0.0173 0.533694,-0.71324 1.605914,-1.96534 1.743675,-2.0362 0.68203,-0.35083 0.997405,0.22161 0.523534,0.95028 -0.306236,0.47089 -0.308657,0.4984 -0.05666,0.64295 0.402326,0.23077 0.533291,0.19197 1.229111,-0.3642 0.884329,-0.70686 1.605435,-0.66905 1.605435,0.0842 0,0.29508 0.0281,0.31281 0.30892,0.19491 0.24093,-0.10115 0.35424,-0.0942 0.51479,0.0318 0.17718,0.13899 0.17453,0.2203 -0.019,0.58363 l -0.22484,0.42215 h 0.57713 c 0.31743,0 0.61773,0.0515 0.66734,0.11449 0.15719,0.19951 0.3276,0.12572 0.62605,-0.27109 0.38103,-0.50661 1.15547,-0.64553 1.88695,-0.33849 0.48508,0.2036 0.50158,0.2033 0.65593,-0.0118 0.0871,-0.12134 0.37494,-0.4047 0.63968,-0.6297 0.40054,-0.3404 0.52552,-0.38792 0.74452,-0.28304 0.14475,0.0693 0.28453,0.26715 0.31062,0.4396 0.0402,0.26587 0.0996,0.30329 0.39019,0.24608 0.2425,-0.0478 0.47522,0.0199 0.79567,0.23148 0.34827,0.2299 0.54477,0.28134 0.85038,0.22266 0.95082,-0.18255 0.98123,-0.16855 0.98123,0.45152 0,0.31484 0.0722,0.66809 0.16044,0.78497 0.13758,0.18227 0.28934,0.004 1.0655,-1.25939 0.49779,-0.80957 1.26884,-1.97724 1.71344,-2.59485 0.73473,-1.0206 0.84375,-1.11969 1.1967,-1.08766 0.58089,0.0527 0.55757,0.38471 -0.11398,1.62244 -0.62829,1.15801 -0.69818,1.34669 -0.41717,1.12624 0.28476,-0.22338 0.86377,-0.16757 0.95017,0.0916 0.10988,0.32963 0.23995,0.28536 0.58865,-0.20037 0.44147,-0.61496 1.13349,-1.10506 1.43302,-1.0149 0.32987,0.0993 0.215,0.51671 -0.45326,1.64692 -0.43806,0.7409 -0.5084,0.96423 -0.43196,1.37159 0.0502,0.26761 0.14151,0.48658 0.20287,0.48658 0.17987,0 0.6773,-0.47724 1.04292,-1.00056 0.38906,-0.55687 0.7928,-0.71265 1.14037,-0.44 0.21764,0.17072 0.21797,0.22524 0.004,0.67009 -0.42894,0.89228 -0.43778,0.94494 -0.0692,0.41254 0.52191,-0.75392 1.03802,-0.85111 1.3813,-0.26009 0.22853,0.39347 0.21087,0.60082 -0.13549,1.59122 -0.16566,0.4737 -0.26007,0.96293 -0.20979,1.0872 0.0502,0.12427 -0.0565,0.5862 -0.23727,1.02651 -0.18078,0.44031 -0.28765,0.83275 -0.23749,0.87209 0.0501,0.0394 0.2414,-0.011 0.425,-0.11187 0.43395,-0.23844 0.66346,-0.23175 0.83822,0.0244 0.10837,0.15885 -0.044,0.54337 -0.6466,1.6315 -0.43362,0.78301 -0.79066,1.50824 -0.79342,1.61161 -0.003,0.1068 0.1525,0.21896 0.35984,0.25979 0.26751,0.0526 0.36487,0.14823 0.36487,0.35816 0,0.15747 -0.16419,0.60331 -0.36487,0.99073 -0.20068,0.38743 -0.36487,0.74705 -0.36487,0.79917 0,0.23604 0.43238,0.0573 0.74741,-0.30889 0.3448,-0.40084 0.84601,-0.60238 1.14162,-0.45907 0.2361,0.11447 0.18473,0.56457 -0.13765,1.20618 -0.36864,0.73367 -0.36826,0.73739 0.0914,0.90167 0.38027,0.13592 0.38247,0.14403 0.28279,1.0405 l -0.10047,0.90352 0.41047,0.0369 c 0.37102,0.0334 0.41483,0.0845 0.45588,0.53214 0.05,0.54486 -0.73629,3.11712 -1.08225,3.54058 -0.25617,0.31356 -0.58078,0.33166 -0.77746,0.0434 -0.10531,-0.15436 -0.066,-0.43426 0.14081,-1.00144 0.36802,-1.0095 0.3666,-1.21751 -0.006,-0.84517 -0.15743,0.15742 -0.32929,0.38928 -0.38191,0.51521 -0.0526,0.12594 -0.31339,0.49676 -0.57948,0.82402 -0.44647,0.54915 -0.46263,0.60031 -0.20956,0.66332 0.21578,0.0538 0.29589,0.22693 0.37585,0.81269 0.0839,0.6143 0.0473,0.85565 -0.20884,1.38083 -0.17076,0.35004 -0.49069,0.77935 -0.71097,0.95404 -0.22028,0.17468 -0.48861,0.40402 -0.59629,0.50965 -0.31051,0.30459 -0.67054,0.17071 -0.75288,-0.27997 -0.0609,-0.3335 -0.1573,-0.42198 -0.58379,-0.53607 -0.28095,-0.0751 -0.74907,-0.13957 -1.04026,-0.14312 -0.29119,-0.004 -0.61187,-0.0844 -0.71262,-0.17961 -0.26023,-0.24597 -0.51474,-0.0455 -0.80122,0.63112 -0.32215,0.76084 -0.56868,0.90627 -0.99884,0.58925 -0.42991,-0.31682 -0.59235,-0.30963 -1.19864,0.0531 -0.54369,0.32531 -0.9208,0.29985 -1.04427,-0.0705 -0.1123,-0.33688 -0.32872,-0.27769 -0.42946,0.11745 -0.0485,0.19022 -0.14351,0.37267 -0.21112,0.40546 -0.0676,0.0328 -0.25247,0.28931 -0.41079,0.57008 -0.48822,0.8658 -1.09604,0.55454 -0.93967,-0.48121 0.0792,-0.52465 0.0592,-0.57173 -0.2966,-0.69892 -0.20984,-0.075 -0.38152,-0.17934 -0.38152,-0.23185 0,-0.0526 -0.37765,-0.0992 -0.8392,-0.10375 -0.46157,-0.004 -1.08698,-0.0457 -1.38979,-0.0915 -0.70215,-0.10617 -1.39392,0.10811 -1.50888,0.4674 -0.047,0.14687 -0.18503,0.33189 -0.30677,0.41114 -0.18296,0.11912 -0.26632,0.10051 -0.48084,-0.10731 -0.25901,-0.25093 -0.26021,-0.25098 -0.62332,-0.0269 -0.20713,0.12781 -0.4059,0.40051 -0.46156,0.63323 -0.11106,0.46442 -0.4383,0.62395 -0.76085,0.37094 -0.18232,-0.14302 -0.19264,-0.28227 -0.062,-0.83649 0.0862,-0.3657 0.12608,-0.6889 0.0887,-0.71826 -0.0374,-0.0294 -0.18501,0.11579 -0.32799,0.32252 -0.14298,0.20675 -0.45028,0.5512 -0.682878,0.76545 -0.508728,0.46861 -0.945857,0.46525 -1.235036,-0.01 l -0.201191,-0.33028 -0.35806,0.3589 c -0.224585,0.22511 -0.48909,0.3589 -0.709571,0.3589 -0.363631,0 -0.452133,-0.14143 -0.535978,-0.85653 -0.03541,-0.30214 -0.0819,-0.25726 -0.404892,0.39091 -0.410712,0.82422 -0.718889,1.05371 -1.090275,0.81191 -0.201848,-0.13141 -0.223245,-0.29784 -0.137469,-1.0692 0.125162,-1.12561 -0.114245,-1.12189 -0.381415,0.006 -0.251355,1.06104 -0.377575,1.28944 -0.712566,1.28944 -0.312221,0 -0.516137,-0.3412 -0.393452,-0.65831 0.04264,-0.1102 0.111438,-0.57389 0.152903,-1.03043 0.09824,-1.08175 -0.183595,-1.12374 -0.768468,-0.11449 -0.465448,0.80318 -0.593842,0.90741 -1.390558,1.12885 -0.534213,0.14848 -0.575739,0.1426 -0.846555,-0.11975 -0.237074,-0.22967 -0.269448,-0.38285 -0.193253,-0.91441 l 0.09152,-0.63852 -0.485533,0.42974 c -0.71111,0.62938 -1.430335,1.00135 -1.93689,1.00173 -0.381476,2.2e-4 -0.498744,0.0777 -0.810848,0.53529 -0.406392,0.59584 -0.718359,0.79564 -1.074775,0.68835 -0.190484,-0.0573 -0.238761,-0.2387 -0.238761,-0.89686 v -0.825 l -0.337788,0.24895 c -0.18579,0.13691 -0.471152,0.24894 -0.634149,0.24894 -0.162997,0 -0.419962,0.10714 -0.571033,0.23809 -0.196613,0.17043 -0.386088,0.22062 -0.666662,0.1766 -0.246925,-0.0387 -0.457312,2.3e-4 -0.568529,0.10538 -0.227343,0.21488 -0.564529,0.21239 -0.872789,-0.006 -0.223675,-0.15879 -0.27802,-0.11079 -0.648199,0.57246 -0.296295,0.5469 -0.478345,0.74578 -0.682652,0.74578 -0.155545,0 -0.352031,0.12643 -0.444846,0.28623 -0.157255,0.27075 -0.53857,0.3772 -0.751836,0.2099 z m 3.758157,-3.66103 c 0.122183,-0.24978 -0.04005,-0.36588 -0.212444,-0.15202 -0.17259,0.21408 -0.176264,0.34015 -0.0099,0.34015 0.07168,0 0.171745,-0.0846 0.222356,-0.18813 z m 2.332592,-0.40306 c -0.130132,-0.16518 -0.350426,0.0153 -0.345472,0.28309 0.0044,0.24261 0.01153,0.24371 0.214248,0.0337 0.115288,-0.11948 0.174333,-0.262 0.131224,-0.31673 z m 32.470268,-5.85323 c 0.17046,-0.36444 0.30445,-0.77661 0.29776,-0.91593 -0.0168,-0.35064 -0.66423,0.74446 -0.79782,1.34956 -0.13713,0.62111 0.10491,0.41123 0.50006,-0.43363 z M 48.798339,258.52628 c 0.04987,-0.10189 0.02538,-0.14785 -0.05736,-0.10773 -0.07935,0.0385 -0.144275,0.11843 -0.144275,0.17767 0,0.1647 0.104614,0.1284 0.201637,-0.07 z m 58.297821,-0.2035 c 0.0328,-0.13283 -0.0224,-0.16955 -0.18244,-0.12138 -0.26981,0.0813 -0.31544,0.42959 -0.0471,0.3595 0.10034,-0.0262 0.20362,-0.13336 0.22953,-0.23812 z m -64.629294,-0.76373 c 0.08592,-0.12594 0.12338,-0.22899 0.08324,-0.22899 -0.04016,0 -0.143271,0.10305 -0.229191,0.22899 -0.08592,0.12594 -0.12338,0.22899 -0.08324,0.22899 0.04016,0 0.143271,-0.10305 0.229191,-0.22899 z"
       style="fill:#ff6600;stroke-width:0.12926643" />
  </g>
</svg>
